<?xml version="1.0" standalone="no"?>
<!DOCTYPE svg PUBLIC "-//W3C//DTD SVG 20010904//EN"
 "http://www.w3.org/TR/2001/REC-SVG-20010904/DTD/svg10.dtd">
<svg version="1.0" xmlns="http://www.w3.org/2000/svg"
 width="260.000000pt" height="260.000000pt" viewBox="0 0 260.000000 260.000000"
 preserveAspectRatio="xMidYMid meet">
<metadata>
Created by potrace 1.14, written by Peter Selinger 2001-2017
</metadata>
<g transform="translate(0.000000,260.000000) scale(0.100000,-0.100000)"
fill="#000000" stroke="none">
<path d="M360 2570 c0 -27 3 -30 30 -30 27 0 30 3 30 30 0 27 -3 30 -30 30
-27 0 -30 -3 -30 -30z"/>
<path d="M830 2570 c0 -27 3 -30 30 -30 27 0 30 3 30 30 0 27 -3 30 -30 30
-27 0 -30 -3 -30 -30z"/>
<path d="M1190 2540 l0 -60 -60 0 -60 0 0 -30 0 -30 60 0 60 0 0 -60 0 -60
-60 0 -60 0 0 -30 0 -30 60 0 60 0 0 -30 0 -30 -60 0 -60 0 0 -30 0 -30 -60 0
-60 0 0 30 0 30 -60 0 -60 0 0 -30 0 -30 -85 0 -85 0 0 -30 c0 -27 -3 -30 -30
-30 -27 0 -30 -3 -30 -30 0 -27 -3 -30 -30 -30 -27 0 -30 -3 -30 -30 0 -27 -3
-30 -30 -30 l-30 0 0 -145 0 -145 -30 0 c-27 0 -30 3 -30 30 0 27 -3 30 -30
30 -27 0 -30 -3 -30 -30 0 -27 3 -30 30 -30 l30 0 0 -60 0 -60 30 0 c27 0 30
-3 30 -30 0 -27 -3 -30 -30 -30 l-30 0 0 -115 0 -115 30 0 30 0 0 -60 0 -60
-60 0 -60 0 0 -30 0 -30 -90 0 -90 0 0 -60 0 -60 30 0 c27 0 30 -3 30 -30 l0
-30 60 0 60 0 0 -90 0 -90 30 0 c30 0 30 -1 30 -55 0 -54 0 -55 30 -55 l30 0
0 -120 0 -120 30 0 c27 0 30 -3 30 -30 l0 -30 60 0 60 0 0 -60 0 -60 85 0 85
0 0 -30 0 -30 60 0 60 0 0 30 c0 27 3 30 30 30 27 0 30 -3 30 -30 0 -27 3 -30
30 -30 27 0 30 -3 30 -30 l0 -30 90 0 90 0 0 30 c0 30 1 30 55 30 l55 0 0 60
0 60 120 0 120 0 0 30 c0 27 3 30 30 30 27 0 30 -3 30 -30 0 -27 3 -30 30 -30
27 0 30 3 30 30 0 27 -3 30 -30 30 -27 0 -30 3 -30 30 0 27 3 30 30 30 27 0
30 3 30 30 0 27 3 30 30 30 27 0 30 3 30 30 0 27 3 30 30 30 27 0 30 3 30 30
l0 30 115 0 115 0 0 30 c0 27 3 30 30 30 25 0 30 4 30 25 0 21 5 25 30 25 l30
0 0 60 0 60 30 0 c27 0 30 3 30 30 l0 30 60 0 60 0 0 90 0 90 -60 0 -60 0 0
205 0 205 -30 0 -30 0 0 60 0 60 -30 0 c-27 0 -30 3 -30 30 0 27 -3 30 -30 30
-27 0 -30 3 -30 30 0 27 -3 30 -30 30 -27 0 -30 3 -30 30 l0 30 -85 0 -85 0 0
-30 c0 -27 -3 -30 -30 -30 l-30 0 0 60 0 60 -30 0 -30 0 0 60 0 60 -60 0 -60
0 0 85 0 85 -145 0 -145 0 0 -30 0 -30 -60 0 -60 0 0 30 0 30 -60 0 -60 0 0
30 0 30 60 0 60 0 0 30 c0 27 3 30 30 30 27 0 30 3 30 30 0 27 3 30 30 30 27
0 30 3 30 30 0 25 4 30 25 30 21 0 25 -5 25 -30 l0 -30 90 0 90 0 0 30 0 30
-90 0 -90 0 0 30 c0 27 3 30 30 30 27 0 30 3 30 30 l0 30 -115 0 -115 0 0 30
c0 27 3 30 30 30 l30 0 0 60 0 60 -30 0 -30 0 0 -60z m60 -270 c0 -27 -3 -30
-30 -30 -27 0 -30 3 -30 30 0 27 3 30 30 30 27 0 30 -3 30 -30z"/>
<path d="M950 2480 l0 -60 30 0 30 0 0 60 0 60 -30 0 -30 0 0 -60z"/>
<path d="M2070 2510 c0 -27 3 -30 30 -30 27 0 30 3 30 30 0 27 -3 30 -30 30
-27 0 -30 -3 -30 -30z"/>
<path d="M180 2450 l0 -30 90 0 90 0 0 30 0 30 -90 0 -90 0 0 -30z"/>
<path d="M1960 2450 c0 -25 4 -30 25 -30 21 0 25 5 25 30 0 25 -4 30 -25 30
-21 0 -25 -5 -25 -30z"/>
<path d="M360 2330 c0 -27 3 -30 30 -30 27 0 30 3 30 30 0 27 -3 30 -30 30
-27 0 -30 -3 -30 -30z"/>
<path d="M2010 1970 c0 -27 3 -30 30 -30 27 0 30 3 30 30 0 27 -3 30 -30 30
-27 0 -30 -3 -30 -30z"/>
</g>
</svg>
